<?xml version="1.0" standalone="no"?>
<!DOCTYPE svg PUBLIC "-//W3C//DTD SVG 1.1//EN" "http://www.w3.org/Graphics/SVG/1.1/DTD/svg11.dtd"><svg t="1750743292545"
    class="icon" viewBox="0 0 1024 1024" version="1.1" xmlns="http://www.w3.org/2000/svg" p-id="6579"
    xmlns:xlink="http://www.w3.org/1999/xlink" width="200" height="200">
    <path
        d="M175.982933 372.928a17.9968 17.9968 0 0 0 0 25.544533l52.462934 52.189867c-57.130667 133.294933-31.035733 293.469867 78.276266 402.210133 143.5904 142.8352 376.3968 142.8352 519.9872 0 143.5904-142.830933 143.5904-374.4128 0-517.248-111.04-110.455467-275.4304-135.492267-410.658133-75.114666L365.3632 210.090667a18.2272 18.2272 0 0 0-25.681067 0L175.982933 372.928z"
        fill="#1A1B54" p-id="6582"></path>
    <path
        d="M576 665.399467c103.3216 0 174.7712-5.2992 202.286933 2.269866 1.681067 0.4608 2.602667 1.1776 4.744534 1.966934 11.234133 4.194133 19.101867 15.121067 19.101866 27.1872 0 0.448-0.008533 0.891733-0.029866 1.3312l0.004266 0.157866c0.017067 1.0496 0.0256 2.103467 0.0256 3.153067-0.029867 113.472-121.92 177.467733-226.133333 177.467733s-225.9712-71.837867-226.133333-177.467733c0-1.045333 0.008533-2.090667 0.0256-3.136 0.004267-0.512 0.055467-0.981333 0.136533-1.408-0.106667-0.968533 0.149333-1.9328 0.341333-2.922667 3.012267-15.735467 16.1536-25.851733 30.72-28.599466 40.7424-9.147733 91.588267 0 194.909867 0z"
        fill="#FFFDFE" p-id="6583"></path>
    <path
        d="M365.9008 761.838933h71.214933v-100.424533c4.347733 0.072533 8.866133 0.192 13.568 0.3456v100.078933h76.906667v-97.181866c4.4032 0.119467 8.925867 0.226133 13.568 0.32v96.861866h76.9024v-96.7424c4.608-0.055467 9.130667-0.1152 13.572267-0.1792v96.9216h76.9024v-98.193066c4.7104-0.046933 9.237333-0.0768 13.572266-0.081067v98.274133h68.177067a151.5264 151.5264 0 0 1-6.557867 12.6464h-61.6192v62.545067a238.72 238.72 0 0 1-13.572266 8.136533V774.485333h-76.9024v99.012267c-4.5184 0.938667-9.045333 1.762133-13.572267 2.474667V774.485333h-76.9024v101.888a259.502933 259.502933 0 0 1-13.568-2.4576V774.485333h-76.906667v70.8352a255.018667 255.018667 0 0 1-13.568-8.0896V774.485333h-64.128a155.946667 155.946667 0 0 1-7.082666-12.6464z"
        fill="#D2D2DD" p-id="6584"></path>
    <path d="M433.066667 497.066667m-108.8 0a108.8 108.8 0 1 0 217.6 0 108.8 108.8 0 1 0-217.6 0Z" fill="#FFFCFD"
        p-id="6585"></path>
    <path d="M345.6 454.4a55.466667 53.333333 0 1 0 110.933333 0 55.466667 53.333333 0 1 0-110.933333 0Z" fill="#1A1B54"
        p-id="6586"></path>
    <path d="M727.466667 497.066667m-108.8 0a108.8 108.8 0 1 0 217.6 0 108.8 108.8 0 1 0-217.6 0Z" fill="#FFFCFD"
        p-id="6587"></path>
    <path d="M640 454.4a55.466667 53.333333 0 1 0 110.933333 0 55.466667 53.333333 0 1 0-110.933333 0Z" fill="#1A1B54"
        p-id="6588"></path>
    <path
        d="M165.917867 106.3552s27.554133-11.204267 35.093333-23.9104c7.5392-12.714667 6.826667-21.802667 21.870933-17.258667 15.048533 4.548267 34.461867 53.504 27.328 118.109867C243.072 247.893333 186.734933 269.354667 147.959467 263.6544c-38.779733-5.704533-59.144533-49.024-53.0176-85.5424 7.8464-52.394667 70.976-71.7568 70.976-71.7568z"
        fill="#FFBF0B" p-id="6589"></path>
</svg>