<?xml version="1.0" standalone="no"?><!DOCTYPE svg PUBLIC "-//W3C//DTD SVG 1.1//EN" "http://www.w3.org/Graphics/SVG/1.1/DTD/svg11.dtd"><svg t="1750743310708" class="icon" viewBox="0 0 1024 1024" version="1.1" xmlns="http://www.w3.org/2000/svg" p-id="7839" xmlns:xlink="http://www.w3.org/1999/xlink" width="200" height="200"><path d="M248.85 953.172L28.593 610.748l185.21 126.55-137.65-359.79 190.218 196.02-30.033-416.854 222.757 334.973 12.512-196.024 65.08 173.692L644.303 59.9v461.524l100.12-133.994-15.017 171.215 252.045-260.121-181.964 498.327 160.191-66.997-117.64 133.994 82.594 14.882-207.738 74.442 75.084-104.218-92.605 29.776 62.572-218.35-147.674 124.066-17.514-198.508-30.943 136.471-51.663-84.362-15.013 124.06-112.626-188.58 7.504 243.173-112.632-94.29 50.06 230.76H248.85z" fill="#2c2c2c" p-id="7840"></path></svg>